<?xml version="1.0" encoding="utf-8"?>
<!-- Svg Vector Icons : http://www.onlinewebfonts.com/icon -->
<!DOCTYPE svg PUBLIC "-//W3C//DTD SVG 1.1//EN" "http://www.w3.org/Graphics/SVG/1.1/DTD/svg11.dtd">
<svg version="1.1" xmlns="http://www.w3.org/2000/svg" xmlns:xlink="http://www.w3.org/1999/xlink" x="0px" y="0px" viewBox="0 0 256 256" enable-background="new 0 0 256 256" xml:space="preserve">
<metadata> Svg Vector Icons : http://www.onlinewebfonts.com/icon </metadata>
<g> <path fill="#e6e7e8" d="M10,128c0,65.2,52.8,118,118,118c65.2,0,118-52.8,118-118c0-65.2-52.8-118-118-118C62.8,10,10,62.8,10,128z "/> <path fill="#38454e" d="M158,164.6h-54.5l-18.7-48.8l44.8-32.6l44.8,32.6L158,164.6z"/> <path fill="#38454e" d="M106.9,161c-2-1-4.5-0.2-5.5,1.8c0,0,0,0,0,0l-1.8,3.6c-1,2-0.2,4.5,1.8,5.5c2,1,4.5,0.2,5.5-1.8 c0,0,0,0,0-0.1l1.8-3.6C109.7,164.4,108.9,162,106.9,161C106.9,161,106.9,161,106.9,161z M99.6,175.5c-2-1-4.5-0.2-5.5,1.8 c0,0,0,0,0,0l-1.8,3.6c-1,2-0.2,4.5,1.8,5.5s4.5,0.2,5.5-1.8c0,0,0,0,0-0.1l1.8-3.6C102.4,179,101.6,176.5,99.6,175.5 C99.6,175.5,99.6,175.5,99.6,175.5z M163.4,166.4l-1.8-3.6c-1-2-3.5-2.8-5.5-1.8s-2.8,3.5-1.8,5.5l1.8,3.6c1,2,3.5,2.8,5.5,1.8 S164.4,168.4,163.4,166.4z M168.9,177.4c-1-2-3.5-2.8-5.5-1.8c-2,1-2.8,3.4-1.8,5.5l1.8,3.6c1,2,3.4,2.9,5.4,1.9 c2-1,2.9-3.4,1.9-5.4c0,0,0,0,0-0.1L168.9,177.4L168.9,177.4z M76.5,107.9l-3.7-1.6c-2.1-0.9-4.5,0.1-5.3,2.1 c-0.9,2.1,0.1,4.5,2.1,5.3l3.7,1.6c2.1,0.9,4.5-0.1,5.3-2.1C79.6,111.1,78.6,108.7,76.5,107.9z M61.6,101.4l-3.7-1.6 c-2.1-0.9-4.5,0.1-5.3,2.1c-0.9,2.1,0.1,4.5,2.1,5.3l3.7,1.6c2.1,0.9,4.5-0.1,5.3-2.1C64.6,104.7,63.6,102.3,61.6,101.4L61.6,101.4 z M129.5,50.7c-2.2,0-4.1,1.8-4.1,4.1v4.1c0,2.2,1.8,4.1,4.1,4.1c2.2,0,4.1-1.8,4.1-4.1v-4.1C133.5,52.5,131.7,50.7,129.5,50.7 L129.5,50.7z M129.5,67c-2.2,0-4.1,1.8-4.1,4.1v4.1c0,2.2,1.8,4.1,4.1,4.1c2.2,0,4.1-1.8,4.1-4.1V71C133.5,68.8,131.7,67,129.5,67 L129.5,67z M186.2,106.3l-3.7,1.6c-2.1,0.8-3.1,3.2-2.2,5.3c0.8,2.1,3.2,3.1,5.3,2.2c0,0,0.1,0,0.1-0.1l3.7-1.6 c2.1-0.9,3.1-3.2,2.2-5.3s-3.2-3.1-5.3-2.2C186.2,106.2,186.2,106.2,186.2,106.3z M206.5,102c-0.9-2.1-3.3-3-5.3-2.1l-3.7,1.6 c-2.1,0.9-3.1,3.2-2.2,5.3c0.8,2.1,3.2,3.1,5.3,2.2c0,0,0.1,0,0.1-0.1l3.7-1.6C206.4,106.4,207.3,104,206.5,102z"/> <path fill="#435159" d="M98.9,14L88.7,28.6l40.8,26.1l36.6-28l-9.2-13.2c-9.2-2.3-18.7-3.5-28.1-3.6C118.7,10.1,108.6,11.4,98.9,14 L98.9,14z M209.4,58.8l-6.6,44.8l40.7,24.7l2.5-4.7c-0.8-22.5-8-44.3-20.9-62.8L209.4,58.8L209.4,58.8z M214.1,208.6l0.8-19.6 l-44.8,0l-19.5,43.2l16.9,7C185.3,232.9,201.3,222.4,214.1,208.6L214.1,208.6z M92.9,189l-48.8,0l0.9,21.2 c12.8,13.2,28.5,23.2,45.9,29.2l17.5-7.3L92.9,189z M56.2,103.6l-6.6-44.8l-17.3,2.3C20.1,78.8,12.9,99.5,11.7,121l3.8,7.3 L56.2,103.6z"/></g>
</svg>